<?xml version="1.0" encoding="utf-8" standalone="no"?>
<!DOCTYPE svg PUBLIC "-//W3C//DTD SVG 1.1//EN"
  "http://www.w3.org/Graphics/SVG/1.1/DTD/svg11.dtd">
<svg xmlns:xlink="http://www.w3.org/1999/xlink" width="360pt" height="360pt" viewBox="0 0 360 360" xmlns="http://www.w3.org/2000/svg" version="1.1">
 <metadata>
  <rdf:RDF xmlns:dc="http://purl.org/dc/elements/1.1/" xmlns:cc="http://creativecommons.org/ns#" xmlns:rdf="http://www.w3.org/1999/02/22-rdf-syntax-ns#">
   <cc:Work>
    <dc:type rdf:resource="http://purl.org/dc/dcmitype/StillImage"/>
    <dc:date>2024-05-27T17:28:07.985556</dc:date>
    <dc:format>image/svg+xml</dc:format>
    <dc:creator>
     <cc:Agent>
      <dc:title>Matplotlib v3.7.2, https://matplotlib.org/</dc:title>
     </cc:Agent>
    </dc:creator>
   </cc:Work>
  </rdf:RDF>
 </metadata>
 <defs>
  <style type="text/css">*{stroke-linejoin: round; stroke-linecap: butt}</style>
 </defs>
 <g id="figure_1">
  <g id="patch_1">
   <path d="M 0 360 
L 360 360 
L 360 0 
L 0 0 
z
" style="fill: #ffffff"/>
  </g>
  <g id="axes_1">
   <g id="LineCollection_1">
    <path d="M 91.5 274.2 
L 91.5 243.4 
L 91.5 212.6 
L 91.5 181.8 
L 91.5 151 
L 91.5 120.2 
L 122.5 120.2 
L 153.5 120.2 
L 184.5 120.2 
L 215.5 120.2 
L 215.5 89.4 
L 246.5 89.4 
L 277.5 89.4 
L 277.5 120.2 
L 277.5 151 
L 277.5 181.8 
L 277.5 212.6 
L 277.5 243.4 
L 277.5 274.2 
L 246.5 274.2 
L 215.5 274.2 
L 184.5 274.2 
L 153.5 274.2 
L 122.5 274.2 
L 91.5 274.2 
" clip-path="url(#pefba71b3b1)" style="fill: none; stroke: #000000; stroke-width: 1.5"/>
   </g>
   <g id="LineCollection_2">
    <path d="M 60.5 305 
L 308.5 305 
L 308.5 58.6 
L 60.5 58.6 
L 60.5 305 
" clip-path="url(#pefba71b3b1)" style="fill: none; stroke: #000000; stroke-width: 1.5"/>
   </g>
  </g>
 </g>
 <defs>
  <clipPath id="pefba71b3b1">
   <rect x="45" y="43.2" width="279" height="277.2"/>
  </clipPath>
 </defs>
</svg>
