<svg id="Layer_1" data-name="Layer 1" xmlns="http://www.w3.org/2000/svg" viewBox="0 0 267.21 265.5"><defs><style>.cls-1{fill:none;stroke:#000;stroke-linejoin:round;stroke-width:1.5px;}</style></defs><path class="cls-1" d="M250.93,49.8V63H277.5V76.2h13.29v39.6H211.07V89.4H171.21V76.2H131.36V89.4h13.28v26.4h13.29V129h13.28V115.8h26.58V129h13.28v13.2h13.29v26.4h39.85V155.4H277.5V142.2h13.29V195h13.28v13.2H277.5v13.2H264.21v13.2H237.64V221.4h13.29V195H237.64v13.2H211.07v39.6H184.5V234.6H171.21V221.4H157.93V195H118.07V181.8H104.79V261H91.5V247.8H64.93V261H51.64" transform="translate(-50.89 -49.05)"/><path class="cls-1" d="M51.64,313.8H317.36V49.8H51.64v264" transform="translate(-50.89 -49.05)"/></svg>