<?xml version="1.0" encoding="utf-8" standalone="no"?>
<!DOCTYPE svg PUBLIC "-//W3C//DTD SVG 1.1//EN"
  "http://www.w3.org/Graphics/SVG/1.1/DTD/svg11.dtd">
<svg xmlns:xlink="http://www.w3.org/1999/xlink" width="360pt" height="360pt" viewBox="0 0 360 360" xmlns="http://www.w3.org/2000/svg" version="1.1">
 <metadata>
  <rdf:RDF xmlns:dc="http://purl.org/dc/elements/1.1/" xmlns:cc="http://creativecommons.org/ns#" xmlns:rdf="http://www.w3.org/1999/02/22-rdf-syntax-ns#">
   <cc:Work>
    <dc:type rdf:resource="http://purl.org/dc/dcmitype/StillImage"/>
    <dc:date>2024-05-29T19:27:20.196402</dc:date>
    <dc:format>image/svg+xml</dc:format>
    <dc:creator>
     <cc:Agent>
      <dc:title>Matplotlib v3.7.2, https://matplotlib.org/</dc:title>
     </cc:Agent>
    </dc:creator>
   </cc:Work>
  </rdf:RDF>
 </metadata>
 <defs>
  <style type="text/css">*{stroke-linejoin: round; stroke-linecap: butt}</style>
 </defs>
 <g id="figure_1">
  <g id="patch_1">
   <path d="M 0 360 
L 360 360 
L 360 0 
L 0 0 
z
" style="fill: #ffffff"/>
  </g>
  <g id="axes_1">
   <g id="LineCollection_1">
    <path d="M 237.642857 49.8 
L 237.642857 63 
L 237.642857 76.2 
L 224.357143 76.2 
L 224.357143 89.4 
L 237.642857 89.4 
L 250.928571 89.4 
L 250.928571 102.6 
L 250.928571 115.8 
L 237.642857 115.8 
L 237.642857 129 
L 237.642857 142.2 
L 224.357143 142.2 
L 211.071429 142.2 
L 211.071429 155.4 
L 211.071429 168.6 
L 211.071429 181.8 
L 211.071429 195 
L 211.071429 208.2 
L 197.785714 208.2 
L 184.5 208.2 
L 184.5 195 
L 171.214286 195 
L 157.928571 195 
L 144.642857 195 
L 131.357143 195 
L 118.071429 195 
L 118.071429 208.2 
L 118.071429 221.4 
L 118.071429 234.6 
L 131.357143 234.6 
L 131.357143 247.8 
L 131.357143 261 
L 131.357143 274.2 
L 131.357143 287.4 
L 131.357143 300.6 
L 131.357143 313.8 
" clip-path="url(#p5047a57af4)" style="fill: none; stroke: #000000; stroke-width: 1.5"/>
   </g>
   <g id="LineCollection_2">
    <path d="M 51.642857 313.8 
L 317.357143 313.8 
L 317.357143 49.8 
L 51.642857 49.8 
L 51.642857 313.8 
" clip-path="url(#p5047a57af4)" style="fill: none; stroke: #000000; stroke-width: 1.5"/>
   </g>
  </g>
 </g>
 <defs>
  <clipPath id="p5047a57af4">
   <rect x="45" y="43.2" width="279" height="277.2"/>
  </clipPath>
 </defs>
</svg>
